<svg xmlns="http://www.w3.org/2000/svg" x="0px" y="0px"
width="64" height="64"
viewBox="0 0 172 172"
style=" fill:#000000;"><g fill="none" fill-rule="nonzero" stroke="none" stroke-width="1" stroke-linecap="butt" stroke-linejoin="miter" stroke-miterlimit="10" stroke-dasharray="" stroke-dashoffset="0" font-family="none" font-weight="none" font-size="none" text-anchor="none" style="mix-blend-mode: normal"><path d="M0,172v-172h172v172z" fill="none"></path><g fill="#ffffff"><path d="M119.98218,1.74268c-0.30444,0.0105 -0.60889,0.06299 -0.90283,0.18896l-4.98657,2.01563c-1.18628,0.48291 -1.86865,1.73218 -1.6377,2.98145l1.80566,9.53223c-2.34107,1.70068 -4.39868,3.71631 -6.14136,6.00488l-9.47974,-1.95264c-1.24927,-0.26245 -2.50903,0.39892 -3.01294,1.57471l-2.09961,4.95508c-0.49341,1.17578 -0.09448,2.54053 0.95532,3.26489l7.99951,5.45898c-0.45142,2.84497 -0.47241,5.72143 -0.06299,8.5874l-8.10449,5.32251c-1.0603,0.70337 -1.49072,2.05762 -1.00781,3.2439l2.01563,4.98657c0.47241,1.18628 1.72168,1.87915 2.98145,1.6377l9.52173,-1.80566c1.70068,2.34107 3.71631,4.39868 6.01538,6.13086l-1.96314,9.49023c-0.25195,1.24927 0.40942,2.50903 1.58521,3.01294l4.95508,2.09961c1.17578,0.49341 2.54053,0.09448 3.26489,-0.95532l5.45898,-7.99951c2.84497,0.44092 5.72143,0.47241 8.5874,0.06299l5.32251,8.10449c0.50391,0.76636 1.36475,1.20728 2.24658,1.20728c0.33594,0 0.67188,-0.06299 0.99731,-0.19946l4.98657,-2.01562c1.19678,-0.47241 1.87915,-1.73218 1.6377,-2.98145l-1.79517,-9.52173c2.34107,-1.70068 4.39868,-3.71631 6.13086,-6.01538l9.47974,1.96314c1.24927,0.24146 2.50903,-0.40942 3.01294,-1.58521l2.09961,-4.95508c0.49341,-1.17578 0.09448,-2.54053 -0.95532,-3.26489l-8.01001,-5.45898c0.45142,-2.84497 0.47241,-5.71094 0.07349,-8.5769l8.09399,-5.33301c1.0708,-0.70337 1.50122,-2.05762 1.01831,-3.2439l-2.01562,-4.98657c-0.48291,-1.18628 -1.73218,-1.87915 -2.98145,-1.6377l-9.53223,1.80566c-1.70068,-2.34107 -3.71631,-4.39868 -6.00488,-6.13086l1.95264,-9.49023c0.26245,-1.24927 -0.39893,-2.50903 -1.57471,-3.01294l-4.95508,-2.08911c-1.17578,-0.50391 -2.54053,-0.10498 -3.26489,0.94482l-5.45898,7.99951c-2.84497,-0.44092 -5.72143,-0.46191 -8.5874,-0.06299l-5.32251,-8.09399c-0.5249,-0.79785 -1.41724,-1.24927 -2.34107,-1.20727zM119.04785,7.73706l5.08105,7.72656c0.59839,0.91333 1.69018,1.36475 2.77148,1.15479c3.33838,-0.67187 6.69776,-0.64038 9.99414,0.08398c1.0603,0.23096 2.1731,-0.19946 2.80298,-1.11279l5.19653,-7.63208l0.89233,0.37793l-1.86865,9.04932c-0.22046,1.0708 0.23096,2.1731 1.14429,2.78198c2.81348,1.85816 5.16504,4.26221 6.9917,7.12817c0.58789,0.92383 1.69018,1.40674 2.77148,1.19678l9.07031,-1.72168l0.36743,0.90283l-7.71607,5.08105c-0.92383,0.59839 -1.38574,1.70068 -1.16528,2.77148c0.67188,3.33838 0.65088,6.69776 -0.08398,9.99414c-0.23096,1.0708 0.19946,2.1731 1.11279,2.79248l7.62158,5.19653l-0.37793,0.90283l-9.03882,-1.87915c-1.0813,-0.20996 -2.1731,0.24146 -2.78198,1.15479c-1.85815,2.81348 -4.26221,5.16504 -7.12817,6.9917c-0.92383,0.58789 -1.39624,1.69018 -1.19678,2.77148l1.71118,9.07031l-0.89233,0.36743l-5.08105,-7.72656c-0.49341,-0.76636 -1.35425,-1.20728 -2.23608,-1.20728c-0.17847,0 -0.36743,0.0105 -0.5354,0.05249c-3.33838,0.67188 -6.69775,0.65088 -9.99414,-0.08398c-1.0603,-0.23096 -2.1731,0.19946 -2.79248,1.11279l-5.19653,7.62158l-0.90283,-0.37793l1.87915,-9.03882c0.22046,-1.0708 -0.24146,-2.1731 -1.15478,-2.78198c-2.81348,-1.85815 -5.16504,-4.26221 -6.9917,-7.12817c-0.58789,-0.92383 -1.67969,-1.39624 -2.77148,-1.19678l-9.07031,1.71118l-0.36743,-0.89233l7.72656,-5.08105c0.91333,-0.59839 1.37524,-1.70068 1.16528,-2.77148c-0.68237,-3.33838 -0.65088,-6.69775 0.07349,-9.99414c0.24146,-1.0708 -0.19946,-2.1731 -1.11279,-2.79248l-7.62158,-5.19653l0.37793,-0.89233l9.03882,1.86865c1.0813,0.20996 2.18359,-0.24146 2.78198,-1.15478c1.86865,-2.81348 4.26221,-5.16504 7.12817,-6.9917c0.92383,-0.58789 1.39624,-1.69018 1.19678,-2.77148l-1.71118,-9.07031zM131.6875,24.1875c-8.89185,0 -16.125,7.23315 -16.125,16.125c0,8.89185 7.23315,16.125 16.125,16.125c8.89185,0 16.125,-7.23315 16.125,-16.125c0,-8.89185 -7.23315,-16.125 -16.125,-16.125zM131.6875,28.92212c6.28833,0 11.39038,5.10205 11.39038,11.39038c0,6.28833 -5.10205,11.39038 -11.39038,11.39038c-6.28833,0 -11.39038,-5.10205 -11.39038,-11.39038c0,-6.28833 5.10205,-11.39038 11.39038,-11.39038zM131.6875,34.9375c-2.97095,0 -5.375,2.40405 -5.375,5.375c0,2.97095 2.40405,5.375 5.375,5.375c2.97095,0 5.375,-2.40405 5.375,-5.375c0,-2.97095 -2.40405,-5.375 -5.375,-5.375zM58.53711,48.375c-2.46704,0 -4.60864,1.67969 -5.20703,4.07324l-3.44336,13.66846c-3.7688,1.01831 -7.39062,2.51953 -10.79199,4.50366l-12.10425,-7.26465c-2.11011,-1.27026 -4.8186,-0.94483 -6.56128,0.80835l-4.64014,4.62964c-1.74267,1.75317 -2.07861,4.45117 -0.80835,6.57178l7.24365,12.10425c-1.95264,3.40137 -3.46435,7.02319 -4.46167,10.80249l-13.68945,3.42236c-2.39355,0.59839 -4.07324,2.73999 -4.07324,5.21753v6.55078c0,2.46704 1.67969,4.60864 4.07324,5.20703l13.66846,3.44336c1.01831,3.7688 2.51953,7.39063 4.50366,10.79199l-7.26465,12.10425c-1.27026,2.12061 -0.94483,4.8186 0.80835,6.57178l4.64014,4.62964c1.74267,1.74268 4.44067,2.07861 6.56128,0.80835l12.10425,-7.24365c3.39087,1.95264 7.02319,3.46435 10.80249,4.46167l3.43286,13.68945c0.58789,2.40405 2.72949,4.07324 5.20703,4.07324h6.55078c2.46704,0 4.60864,-1.67969 5.20703,-4.07324l3.44336,-13.66846c3.7688,-1.01831 7.39063,-2.53003 10.79199,-4.50366l12.10425,7.26465c2.11011,1.27027 4.8186,0.94483 6.57178,-0.80835l4.62964,-4.62964c1.74268,-1.74268 2.07861,-4.45117 0.80835,-6.57178l-7.23315,-12.10425c1.95264,-3.39087 3.45386,-7.02319 4.45117,-10.80249l13.68945,-3.42236c2.39355,-0.59839 4.07324,-2.73999 4.07324,-5.21753v-6.55078c0,-2.47754 -1.67969,-4.61914 -4.07324,-5.21753l-13.66846,-3.43286c-1.01831,-3.7688 -2.53003,-7.40112 -4.50366,-10.79199l7.26465,-12.10425c1.27027,-2.12061 0.94483,-4.8186 -0.80835,-6.57178l-4.62964,-4.62964c-1.75317,-1.74267 -4.45117,-2.07861 -6.57178,-0.80835l-12.10425,7.23315c-3.40137,-1.95264 -7.02319,-3.45386 -10.80249,-4.45117l-3.42236,-13.68945c-0.59839,-2.39355 -2.73999,-4.07324 -5.21753,-4.07324zM58.53711,53.75h6.55078l3.42236,13.68945c0.47241,1.87915 1.94214,3.35938 3.83179,3.86328c3.31738,0.90283 6.50879,2.22559 9.50073,3.94727c1.71118,0.98682 3.78979,0.97632 5.44849,-0.02099l12.10425,-7.26465l4.64014,4.64014l-7.26465,12.10425c-0.99732,1.65869 -1.00781,3.7478 -0.021,5.44849c1.72168,2.99194 3.04443,6.19385 3.94727,9.50073c0.50391,1.90015 1.98413,3.35938 3.86328,3.83179l13.68945,3.42236v6.55078l-13.68945,3.42236c-1.87915,0.47241 -3.35937,1.94214 -3.86328,3.83179c-0.90283,3.31738 -2.23608,6.50879 -3.94727,9.50073c-0.98682,1.70068 -0.97632,3.78979 0.021,5.44849l7.26465,12.10425l-4.64014,4.64014l-12.09375,-7.26465c-1.66919,-0.99732 -3.7478,-1.00781 -5.44849,-0.021c-2.99194,1.72168 -6.19385,3.04443 -9.51123,3.94727c-1.88965,0.50391 -3.35937,1.98413 -3.83179,3.86328l-3.42236,13.68945h-6.55078l-3.42236,-13.68945c-0.47241,-1.86865 -1.94214,-3.34888 -3.83179,-3.86328c-3.31738,-0.90283 -6.50879,-2.22559 -9.50073,-3.94727c-0.85034,-0.49341 -1.79517,-0.72436 -2.72949,-0.72436c-0.94482,0 -1.88965,0.24146 -2.72949,0.74536l-12.09375,7.26465l-4.64014,-4.64014l7.26465,-12.09375c0.99731,-1.65869 1.00781,-3.7478 0.02099,-5.45898c-1.72168,-2.99194 -3.04443,-6.18335 -3.94727,-9.50073c-0.50391,-1.90015 -1.98413,-3.36987 -3.86328,-3.83179l-13.68945,-3.42236v-6.55078l13.68945,-3.42236c1.86865,-0.46191 3.34888,-1.94214 3.86328,-3.83179c0.90283,-3.31738 2.22559,-6.50879 3.94727,-9.50073c0.98682,-1.71118 0.97632,-3.80029 -0.02099,-5.45898l-7.26465,-12.09375l4.64014,-4.64014l12.09375,7.26465c1.65869,0.99731 3.7478,1.00781 5.45898,0.02099c2.99194,-1.72168 6.18335,-3.04443 9.50073,-3.94727c1.88965,-0.50391 3.35938,-1.98413 3.83179,-3.86328zM61.24561,77.948c-3.72681,0.021 -7.46411,0.62988 -10.99146,1.83716c-1.40674,0.48291 -2.1521,2.00513 -1.66919,3.41186c0.37793,1.12329 1.42773,1.82666 2.54053,1.82666c0.28345,0 0.57739,-0.05249 0.87134,-0.15747c5.95239,-2.03662 12.59766,-2.05762 18.56055,-0.08398c1.41724,0.45142 2.92896,-0.30444 3.39087,-1.72168c0.47241,-1.40674 -0.29395,-2.91846 -1.70068,-3.39087c-3.53784,-1.16528 -7.27515,-1.74267 -11.00195,-1.72168zM80.79297,84.78223c-0.68237,0.08398 -1.33325,0.41992 -1.79517,1.00781c-0.91333,1.16528 -0.71387,2.85547 0.45142,3.7793c1.39624,1.10229 2.7085,2.34107 3.87378,3.68482c0.5354,0.60889 1.28076,0.91333 2.03662,0.91333c0.61939,0 1.25977,-0.22046 1.76367,-0.66138c1.11279,-0.97632 1.22827,-2.677 0.25195,-3.80029c-1.39624,-1.5852 -2.93945,-3.05493 -4.59815,-4.35669c-0.58789,-0.46191 -1.29126,-0.64038 -1.98413,-0.5669zM61.8125,91.375c-10.37207,0 -18.8125,8.44043 -18.8125,18.8125c0,10.37207 8.44043,18.8125 18.8125,18.8125c10.37207,0 18.8125,-8.44043 18.8125,-18.8125c0,-10.37207 -8.44043,-18.8125 -18.8125,-18.8125zM31.66211,95.64771c-1.0498,0.03149 -2.02612,0.68237 -2.42505,1.72168c-0.5354,1.38574 0.15747,2.93945 1.54321,3.47485l4.56665,1.75317c0.31494,0.12598 0.65088,0.17847 0.96582,0.17847c1.0813,0 2.09961,-0.66138 2.50903,-1.73218c0.5354,-1.38574 -0.16797,-2.92895 -1.54321,-3.46435l-4.56665,-1.75317c-0.34643,-0.13647 -0.70337,-0.18896 -1.0498,-0.17847zM61.8125,96.75c7.41162,0 13.4375,6.02588 13.4375,13.4375c0,7.41162 -6.02588,13.4375 -13.4375,13.4375c-7.41162,0 -13.4375,-6.02588 -13.4375,-13.4375c0,-7.41162 6.02588,-13.4375 13.4375,-13.4375zM61.8125,104.8125c-2.97095,0 -5.375,2.40405 -5.375,5.375c0,2.97095 2.40405,5.375 5.375,5.375c2.97095,0 5.375,-2.40405 5.375,-5.375c0,-2.97095 -2.40405,-5.375 -5.375,-5.375zM34.47559,107.5105l-4.88159,0.08398c-1.49072,0.03149 -2.677,1.24927 -2.64551,2.72949c0.03149,1.46973 1.22827,2.64551 2.6875,2.64551h0.05249l4.88159,-0.08398c1.49072,-0.03149 2.677,-1.24927 2.64551,-2.73999c-0.03149,-1.48022 -1.23877,-2.58252 -2.73999,-2.63501zM36.65918,117.54663c-0.35693,0 -0.70337,0.07349 -1.0498,0.20996l-4.49316,1.92114c-1.37524,0.57739 -2.00513,2.1521 -1.42773,3.52734c0.43042,1.01831 1.42773,1.6377 2.47754,1.6377c0.34643,0 0.70337,-0.07349 1.0498,-0.22046l4.49316,-1.91065c1.36475,-0.57739 2.00513,-2.1521 1.42773,-3.52734c-0.43042,-1.01831 -1.43823,-1.6377 -2.47754,-1.6377zM42.40161,126.06055c-0.69287,0 -1.37524,0.26245 -1.90015,0.78735l-3.46436,3.45386c-1.0498,1.0603 -1.0498,2.75049 0,3.81079c0.5249,0.5144 1.21777,0.77685 1.90015,0.77685c0.69287,0 1.38574,-0.26245 1.91065,-0.77685l3.45386,-3.46436c1.0498,-1.0498 1.0498,-2.75049 0,-3.80029c-0.5249,-0.5249 -1.20728,-0.78735 -1.90015,-0.78735z"></path></g></g></svg>