<svg xmlns="http://www.w3.org/2000/svg" x="0px" y="0px" width="50" height="50" viewBox="0 0 172 172" style=" fill:#000000;">
    <g fill="none" fill-rule="nonzero" stroke="none" stroke-width="1" stroke-linecap="butt" stroke-linejoin="miter" stroke-miterlimit="10" stroke-dasharray="" stroke-dashoffset="0" font-family="none" font-weight="none" font-size="none" text-anchor="none" style="mix-blend-mode: normal">
        <path d="M0,172v-172h172v172z" fill="none"></path>
        <g fill="#ffffff">
            <path d="M3.44,30.96c-1.89978,0.00019 -3.43981,1.54022 -3.44,3.44v49.88c0,21.78316 17.77684,39.56 39.56,39.56c19.68609,0 35.37943,-14.76715 38.35735,-33.64078c2.12095,2.93827 4.1365,5.93912 6.53062,8.62688c-4.27779,18.12565 -9.613,40.79052 -12.19453,51.74781c-0.23982,1.02226 0.00033,2.09806 0.65211,2.92129c0.65178,0.82323 1.64382,1.30374 2.69383,1.3048h21.20438c1.59836,0.00158 2.98728,-1.09787 3.35265,-2.6539c2.34453,-9.95272 5.31869,-22.58316 8.11625,-34.45375c6.36736,3.33399 13.73379,6.14765 22.44735,6.14765c22.72965,0 41.28,-18.55035 41.28,-41.28c0,-22.72965 -18.55035,-41.28 -41.28,-41.28c-15.99051,0 -29.82654,9.41353 -36.63735,23.34765c-7.22139,-12.50118 -12.62505,-25.68253 -14.59312,-31.3564c-0.481,-1.38443 -1.78627,-2.31214 -3.25188,-2.31125h-21.19765c-1.89978,0.00019 -3.43981,1.54022 -3.44,3.44v49.88c0,6.66836 -5.37164,12.04 -12.04,12.04c-6.66836,0 -12.04,-5.37164 -12.04,-12.04v-49.88c-0.00019,-1.89978 -1.54022,-3.43981 -3.44,-3.44zM6.88,37.84h13.76v46.44c0,10.40092 8.51908,18.92 18.92,18.92c10.40092,0 18.92,-8.51908 18.92,-18.92v-46.44h15.41953c2.72098,7.62112 8.47109,22.4895 17.4889,36.28125c0.73812,1.13126 2.06994,1.72592 3.40496,1.5203c1.33503,-0.20561 2.4262,-1.17344 2.78973,-2.47437c4.13941,-14.84307 17.62487,-25.00719 33.13687,-25.00719c18.99755,0 34.4,15.40245 34.4,34.4c0,18.99755 -15.40245,34.4 -34.4,34.4c-8.89045,0 -16.72056,-3.23319 -23.02515,-7.10844c-0.94104,-0.5769 -2.10175,-0.66724 -3.12072,-0.24289c-1.01897,0.42435 -1.77245,1.31185 -2.02585,2.38617c-2.86711,12.1636 -5.92878,25.15572 -8.46563,35.92515h-14.13625c2.84845,-12.09266 7.56951,-32.14276 11.56297,-49.06031c0.26423,-1.11939 -0.04839,-2.29679 -0.83312,-3.13765c-4.44405,-4.77398 -8.49429,-10.2926 -12.08703,-16.00406c-0.81763,-1.29474 -2.39257,-1.89322 -3.86371,-1.46823c-1.47113,0.42499 -2.48429,1.77116 -2.48551,3.30245v2.72781c0,18.05204 -14.62796,32.68 -32.68,32.68c-18.05204,0 -32.68,-14.62796 -32.68,-32.68zM130.72,61.92c-9.4015,0 -17.65066,6.38101 -19.98828,15.48c-0.24593,0.95756 -1.34684,5.62984 -3.07047,12.92687c-0.30494,1.28685 0.15475,2.63459 1.1825,3.46688c5.21104,4.22224 12.83622,9.40625 21.87625,9.40625c11.34986,0 20.64,-9.29014 20.64,-20.64c0,-11.34986 -9.29014,-20.64 -20.64,-20.64zM130.72,68.8c7.6183,0 13.76,6.1417 13.76,13.76c0,7.6183 -6.1417,13.76 -13.76,13.76c-5.61119,0 -11.26119,-3.31753 -15.80922,-6.7389c1.24679,-5.26847 2.4226,-10.22793 2.48594,-10.47453c1.56334,-6.08517 7.01774,-10.30656 13.32328,-10.30656z"></path>
        </g>
    </g>
</svg>